HIERARCHY
ROOT hip
{
	OFFSET 0.00000 0.00000 0.00000
	CHANNELS 6 Xposition Yposition Zposition Zrotation Yrotation Xrotation 
	JOINT rightuplegdummy
	{
		OFFSET 0 0 0
		CHANNELS 3 Zrotation Yrotation Xrotation
		JOINT rightupleg
		{
			OFFSET -3.52197 -3.41223 0.04002
			CHANNELS 3 Zrotation Yrotation Xrotation
			JOINT rightleg
			{
				OFFSET 0.00006 -17.42390 1.60435
				CHANNELS 3 Zrotation Yrotation Xrotation
				JOINT rightfoot
				{
					OFFSET 0.06153 -16.50078 -1.63901
					CHANNELS 3 Zrotation Yrotation Xrotation
					JOINT righttoes
					{
						OFFSET 0.00298 -1.73825 3.34613
						CHANNELS 3 Zrotation Yrotation Xrotation
						End Site
						{
							OFFSET 0.00480 -0.05416 3.85043
						}
					}
				}
			}
		}
	}
	JOINT spinedummy
	{
		OFFSET 0 0 0
		CHANNELS 3 Zrotation Yrotation Xrotation
		JOINT spine
		{
			OFFSET 0.00000 4.68130 0.00000
			CHANNELS 3 Zrotation Yrotation Xrotation
			JOINT spine1
			{
				OFFSET -0.00000 10.10138 0.05002
				CHANNELS 3 Zrotation Yrotation Xrotation
				JOINT headdummy
				{
					OFFSET 0 0 0
					CHANNELS 3 Zrotation Yrotation Xrotation
					JOINT head
					{
						OFFSET -0.00000 3.43865 0.00438
						CHANNELS 3 Zrotation Yrotation Xrotation
						End Site
						{
							OFFSET -0.11417 5.02924 0.98962
						}
					}
				}
				JOINT leftshoulder1dummy
				{
					OFFSET 0 0 0
					CHANNELS 3 Zrotation Yrotation Xrotation
					JOINT leftshoulder1
					{
						OFFSET 3.53937 -0.14262 -0.08662
						CHANNELS 3 Zrotation Yrotation Xrotation
						JOINT leftarm
						{
							OFFSET 4.04833 -0.00133 0.12681
							CHANNELS 3 Zrotation Yrotation Xrotation
							JOINT leftforearm
							{
								OFFSET 10.33880 -0.01036 -0.55515
								CHANNELS 3 Zrotation Yrotation Xrotation
								JOINT lefthand
								{
									OFFSET 8.69677 0.07543 0.40060
									CHANNELS 3 Zrotation Yrotation Xrotation
									End Site
									{
										OFFSET 5.28377 -0.21905 0.59205
									}
								}
							}
						}
					}
				}
				JOINT rightshoulderdummy
				{
					OFFSET 0 0 0
					CHANNELS 3 Zrotation Yrotation Xrotation
					JOINT rightshoulder
					{
						OFFSET -3.53937 -0.14262 -0.08660
						CHANNELS 3 Zrotation Yrotation Xrotation
						JOINT rightarm
						{
							OFFSET -4.04833 -0.00133 0.12683
							CHANNELS 3 Zrotation Yrotation Xrotation
							JOINT rightforearm
							{
								OFFSET -10.37987 -0.01039 -0.55511
								CHANNELS 3 Zrotation Yrotation Xrotation
								JOINT righthand
								{
									OFFSET -8.67398 0.07538 0.40058
									CHANNELS 3 Zrotation Yrotation Xrotation
									End Site
									{
										OFFSET -5.24810 -0.21916 0.59204
									}
								}
							}
						}
					}
				}
			}
		}
	}
	JOINT leftuplegdummy
	{
		OFFSET 0 0 0
		CHANNELS 3 Zrotation Yrotation Xrotation
		JOINT leftupleg
		{
			OFFSET 3.52197 -3.41223 0.04002
			CHANNELS 3 Zrotation Yrotation Xrotation
			JOINT leftleg
			{
				OFFSET -0.00012 -17.42399 1.60337
				CHANNELS 3 Zrotation Yrotation Xrotation
				JOINT leftfoot
				{
					OFFSET -0.09972 -16.50070 -1.63802
					CHANNELS 3 Zrotation Yrotation Xrotation
					JOINT lefttoes
					{
						OFFSET -0.01575 -1.73823 3.34611
						CHANNELS 3 Zrotation Yrotation Xrotation
						End Site
						{
							OFFSET 0.03150 -0.01868 3.85031
						}
					}
				}
			}
		}
	}
}
MOTION
Frames: 18
Frame Time: 0.033333
2.5757 38.3768 23.7167 -6.9021 -68.5030 5.5339 0.0000 -0.0000 0.0000 -8.0828 1.4199 -7.9930 0.2667 0.6242 33.3062 9.6319 0.4461 -17.3997 0.0000 0.0000 0.0000 0.0000 -0.0000 0.0000 2.3072 0.3639 4.1849 -0.1467 0.5454 2.0067 -0.0000 -0.0000 -0.0000 -23.4167 43.9220 -34.8703 -0.0000 -0.0000 -0.0000 -33.0850 -12.3013 6.1774 -32.3646 -4.9251 11.2923 177.0518 -80.6526 -157.5166 8.6411 -2.9688 -0.5962 -0.0000 -0.0000 -0.0000 30.2469 6.4916 3.6240 34.4862 -7.3096 20.8042 -173.1000 86.7955 -155.4766 -4.3702 7.5829 -0.4242 0.0000 -0.0000 0.0000 16.1622 -7.2312 -10.7394 9.2768 13.4070 28.4725 -17.5667 0.8004 -6.4050 0.0000 0.0000 0.0000
2.8061 37.5936 23.1526 -4.8753 -68.7413 3.6397 0.0000 -0.0000 0.0000 -7.5538 3.4572 -10.3065 -2.4279 -2.3471 37.3385 7.6055 0.6029 -21.4975 0.0000 0.0000 0.0000 0.0000 -0.0000 0.0000 2.4683 0.5644 4.5183 -1.9709 1.1325 2.9484 -0.0000 -0.0000 -0.0000 -25.0518 42.1118 -39.1343 -0.0000 -0.0000 -0.0000 -34.9261 -12.6248 6.6040 -28.5487 -5.7218 10.5235 175.7773 -79.8744 -150.5454 8.8287 -3.1927 -0.6250 -0.0000 -0.0000 -0.0000 31.0045 6.5078 3.7049 34.8226 -5.5419 18.3983 -168.9732 87.5605 -149.6085 -5.0082 7.7718 -0.5023 0.0000 -0.0000 0.0000 16.1511 -8.5544 -11.1741 10.3510 14.6295 29.2924 -18.3801 0.1277 -10.9798 0.0000 0.0000 0.0000
3.0821 37.7865 22.7758 -1.7518 -66.5799 1.4231 0.0000 -0.0000 0.0000 -7.9134 4.7059 -10.7126 -4.6231 -4.8977 36.4485 8.9377 0.6585 -20.7712 0.0000 0.0000 0.0000 0.0000 -0.0000 0.0000 0.4715 -0.3518 4.5854 -1.0210 -0.0157 3.2896 -0.0000 -0.0000 -0.0000 -27.4047 40.1205 -43.8280 -0.0000 -0.0000 -0.0000 -36.0670 -12.9254 6.9182 -30.9594 0.2734 8.4532 175.6469 -79.7497 -149.7057 8.2176 -3.0303 -0.5698 -0.0000 -0.0000 -0.0000 31.9767 6.6266 3.8466 37.8282 -8.1644 15.6798 -170.0241 87.0934 -149.8107 -4.8286 7.6625 -0.4784 0.0000 -0.0000 0.0000 15.6671 -8.4287 -13.4089 9.2543 13.3542 28.5350 -17.8348 0.5952 -7.8118 0.0000 0.0000 0.0000
3.4222 38.9196 22.7857 0.2350 -64.1981 1.0064 0.0000 -0.0000 0.0000 -9.1272 2.7043 -9.2472 -4.0636 -5.4322 29.7818 9.9074 0.2547 -14.8292 0.0000 0.0000 0.0000 0.0000 -0.0000 0.0000 0.0988 -1.1266 4.2400 -0.7671 -0.9181 2.0342 -0.0000 -0.0000 -0.0000 -27.6974 38.8396 -43.8185 -0.0000 -0.0000 -0.0000 -36.7199 -13.1027 7.1045 -36.9412 8.8274 7.1779 176.3823 -80.8586 -154.7419 9.5090 -2.1234 -0.5955 -0.0000 -0.0000 -0.0000 32.2224 6.6051 3.8632 41.4070 -14.3266 14.2249 -173.3317 85.8355 -153.5866 -4.4593 7.1868 -0.4223 0.0000 -0.0000 0.0000 14.0859 -4.2393 -14.5553 6.4707 11.3946 22.9860 -15.6676 1.7475 1.5048 0.0000 0.0000 0.0000
3.8333 40.3691 23.1306 1.1575 -65.2417 2.1602 0.0000 -0.0000 0.0000 -10.7897 0.7709 -8.8147 -1.2299 -1.9821 21.4341 11.5563 -0.7139 -4.4595 0.0000 0.0000 0.0000 0.0000 -0.0000 0.0000 2.0479 -0.3493 2.2785 -2.9043 0.2031 1.0758 -0.0000 -0.0000 -0.0000 -25.5122 38.9888 -39.8081 -0.0000 -0.0000 -0.0000 -37.5497 -13.3091 7.3371 -42.4448 17.2589 4.5260 176.9368 -80.3114 -156.6148 9.1880 -2.1814 -0.5796 -0.0000 -0.0000 -0.0000 31.9169 6.5147 3.7982 42.2254 -19.9320 14.9017 -174.5680 85.1652 -155.4321 -3.5959 7.0000 -0.3242 0.0000 -0.0000 0.0000 11.3734 4.8094 -12.9247 3.2291 7.5186 14.4921 -16.2177 3.0312 10.1400 0.0000 0.0000 0.0000
4.3093 41.4081 23.4986 2.0562 -68.7652 2.7925 0.0000 -0.0000 0.0000 -11.7498 -0.1014 -10.0095 -0.6775 0.3390 15.8545 13.4818 -1.8431 4.4314 0.0000 0.0000 0.0000 0.0000 -0.0000 0.0000 2.7589 1.1537 0.2575 -4.2113 1.9167 1.0435 -0.0000 -0.0000 -0.0000 -23.0065 40.2621 -36.3041 -0.0000 -0.0000 -0.0000 -36.9918 -13.2218 7.2030 -47.5804 24.4880 -0.2290 177.2379 -77.0642 -154.6436 4.7589 -2.9038 -0.3146 -0.0000 -0.0000 -0.0000 31.8208 6.5687 3.8090 39.3295 -22.3278 17.9453 -174.6620 85.3969 -156.1345 -2.3349 7.2340 -0.1918 0.0000 -0.0000 0.0000 10.0853 10.1596 -10.4470 0.9412 5.9873 10.2680 -19.2884 4.1001 12.9609 0.0000 0.0000 0.0000
4.9039 41.7896 23.7750 3.4355 -71.0370 1.5625 0.0000 -0.0000 0.0000 -11.9646 -0.6895 -11.1596 -3.3690 -6.0270 15.6206 9.0020 -1.4453 7.1348 0.0000 0.0000 0.0000 0.0000 -0.0000 0.0000 2.0799 1.6795 -0.2053 -3.5425 2.4087 1.4342 -0.0000 -0.0000 -0.0000 -21.7494 41.6503 -35.0685 -0.0000 -0.0000 -0.0000 -35.0712 -12.7895 6.6961 -49.5882 28.7857 -2.5926 177.7008 -73.7754 -154.8031 2.6509 -3.1425 -0.1672 -0.0000 -0.0000 -0.0000 31.9176 6.6791 3.8605 35.8170 -21.8390 21.5410 -174.1071 86.1097 -156.1852 -1.8564 7.3995 -0.1410 0.0000 -0.0000 0.0000 8.7224 12.2850 -9.0076 0.8457 4.0579 13.1552 -20.9581 4.1871 11.4162 0.0000 0.0000 0.0000
5.6384 41.5256 24.0547 3.7166 -71.3832 0.3491 0.0000 -0.0000 0.0000 -12.0028 -0.7076 -12.5378 -7.8238 -14.3897 22.2172 2.9341 -0.4308 5.8538 0.0000 0.0000 0.0000 0.0000 -0.0000 0.0000 3.1176 1.4894 0.6140 -3.7166 2.3930 2.0705 -0.0000 -0.0000 -0.0000 -21.3633 41.9394 -34.7745 -0.0000 -0.0000 -0.0000 -34.0176 -12.5430 6.4226 -45.5753 29.5802 -0.3494 178.3681 -71.6910 -158.2406 4.0717 -2.7385 -0.2606 -0.0000 -0.0000 -0.0000 31.6224 6.6825 3.8319 34.3535 -20.9559 23.1928 -174.2836 86.2754 -156.9744 -1.8303 7.2386 -0.1369 0.0000 -0.0000 0.0000 7.7485 11.2053 -8.0855 0.8689 1.1104 19.9720 -21.0176 3.6099 8.2817 0.0000 0.0000 0.0000
6.3539 40.6211 24.2754 3.8664 -71.8414 -1.1484 0.0000 -0.0000 0.0000 -11.9127 -1.0710 -13.6193 -11.7777 -16.3559 30.3365 5.0440 -0.6265 3.0647 0.0000 0.0000 0.0000 0.0000 -0.0000 0.0000 3.8468 1.5475 2.2228 -4.3051 2.5687 1.9742 -0.0000 -0.0000 -0.0000 -21.4763 41.6890 -34.4295 -0.0000 -0.0000 -0.0000 -33.6955 -12.5132 6.3587 -40.2700 27.4877 2.2006 178.8726 -71.8754 -162.2355 4.4883 -2.7421 -0.2901 -0.0000 -0.0000 -0.0000 30.6765 6.6247 3.7152 33.7710 -20.3411 23.2804 -175.0002 86.0870 -158.3375 -1.9060 7.0868 -0.1440 0.0000 -0.0000 0.0000 7.4633 8.8316 -6.0436 -1.2140 -2.6241 25.1704 -18.5712 1.9864 0.8091 0.0000 0.0000 0.0000
6.9596 39.2621 24.3488 7.4350 -71.3592 -5.8708 0.0000 -0.0000 0.0000 -13.3332 -2.0398 -12.8618 -13.3751 -16.2634 34.1985 10.9988 -0.7126 -4.0478 0.0000 0.0000 0.0000 0.0000 -0.0000 0.0000 0.7357 1.4712 4.0662 -2.6390 1.9209 1.0407 -0.0000 -0.0000 -0.0000 -21.6557 41.5624 -34.2340 -0.0000 -0.0000 -0.0000 -33.4531 -12.4059 6.2768 -36.1093 22.5315 3.8315 179.0271 -75.6475 -164.2468 5.1867 -3.1648 -0.3552 -0.0000 -0.0000 -0.0000 29.8814 6.5826 3.6206 33.3382 -19.0711 22.4452 -172.5680 87.1779 -155.2482 -2.8219 7.2964 -0.2465 0.0000 -0.0000 0.0000 5.5517 5.5122 -4.3504 -1.3046 -2.5930 27.2379 -14.5071 0.1368 -10.7247 0.0000 0.0000 0.0000
7.5649 38.0887 24.3620 10.1489 -68.3704 -9.2407 0.0000 -0.0000 0.0000 -15.4840 -4.6617 -11.0506 -13.1847 -15.8518 34.4616 14.0783 0.0912 -12.5324 0.0000 0.0000 0.0000 0.0000 -0.0000 0.0000 -1.7909 0.7672 4.7823 -1.1485 0.8172 1.6718 -0.0000 -0.0000 -0.0000 -21.2779 40.0421 -35.2691 -0.0000 -0.0000 -0.0000 -35.0641 -12.6603 6.6418 -29.6450 13.5809 5.1941 177.7602 -80.7703 -160.5168 8.3977 -2.5215 -0.5472 -0.0000 -0.0000 -0.0000 30.4156 6.5848 3.6746 34.6276 -18.4092 19.0787 -142.7312 89.2695 -123.7352 -4.3552 7.5726 -0.4224 0.0000 -0.0000 0.0000 2.4652 -1.6716 -5.7596 2.9472 3.5031 30.0965 -12.7342 -0.6863 -18.3816 0.0000 0.0000 0.0000
8.1320 37.6825 24.3155 8.4314 -66.5206 -7.9297 0.0000 -0.0000 0.0000 -15.7378 -6.5522 -11.2472 -12.9592 -14.9731 35.5230 14.2344 0.3483 -14.6065 0.0000 0.0000 0.0000 0.0000 -0.0000 0.0000 0.6675 0.6244 4.1119 -3.1353 1.2085 4.2855 -0.0000 -0.0000 -0.0000 -20.7758 37.2781 -37.7836 -0.0000 -0.0000 -0.0000 -38.4562 -13.4673 7.5683 -24.1229 3.7975 3.4920 173.8391 -84.1482 -150.9625 10.7364 -1.6273 -0.6339 -0.0000 -0.0000 -0.0000 31.7500 6.6701 3.8402 37.5011 -19.5282 14.5054 -44.0464 89.3928 -25.5720 -5.4468 7.2019 -0.5300 0.0000 -0.0000 0.0000 1.6611 -7.1667 -8.0237 6.6540 7.7893 33.3999 -13.2781 -0.8493 -19.6356 0.0000 0.0000 0.0000
8.4766 38.2071 24.0471 5.5860 -67.9693 -5.1013 0.0000 -0.0000 0.0000 -14.2109 -7.1712 -12.9177 -11.3360 -13.2497 34.9272 12.7604 -0.2105 -9.7866 0.0000 0.0000 0.0000 0.0000 -0.0000 0.0000 3.0652 1.4253 3.8018 -4.4284 2.3278 5.0056 -0.0000 -0.0000 -0.0000 -20.3591 36.9684 -38.9322 -0.0000 -0.0000 -0.0000 -40.1559 -13.8885 8.0645 -26.4874 -0.7234 0.0842 172.5622 -84.4224 -147.6807 10.6266 -1.5927 -0.6243 -0.0000 -0.0000 -0.0000 32.2560 6.7728 3.9307 39.3578 -20.7120 13.9424 -94.4517 89.6495 -77.5162 -5.5903 6.7872 -0.5294 0.0000 -0.0000 0.0000 3.4334 -6.1219 -7.8556 5.8585 7.3724 31.1477 -13.6280 -0.5351 -16.6517 0.0000 0.0000 0.0000
8.5695 39.3806 23.5317 3.3897 -69.0930 -2.1345 0.0000 -0.0000 0.0000 -12.8363 -8.2822 -12.3502 -5.4231 -7.5428 28.6259 12.6795 -0.7362 -4.9342 0.0000 0.0000 0.0000 0.0000 -0.0000 0.0000 2.0284 1.4465 3.5822 -1.9862 1.8068 2.9574 -0.0000 -0.0000 -0.0000 -19.1762 39.9552 -36.3017 -0.0000 -0.0000 -0.0000 -39.4865 -13.7091 7.8599 -33.6877 0.0610 -1.2466 176.0004 -82.3640 -155.2356 10.8024 -0.9434 -0.5792 -0.0000 -0.0000 -0.0000 32.1010 6.8557 3.9464 39.5343 -20.7584 17.6102 -154.5532 88.9155 -135.1397 -4.0925 7.3311 -0.3857 0.0000 -0.0000 0.0000 5.7703 -2.2545 -6.3164 3.2959 5.2064 23.8947 -13.6929 0.3380 -8.9982 0.0000 0.0000 0.0000
8.5017 40.6190 22.7886 1.3940 -67.6407 1.0591 0.0000 -0.0000 0.0000 -12.0358 -7.6805 -9.5222 0.1867 0.7620 21.3465 16.1820 -1.1519 -3.3236 0.0000 0.0000 0.0000 0.0000 -0.0000 0.0000 0.8522 0.3328 2.1217 -0.0937 0.2650 1.4051 -0.0000 -0.0000 -0.0000 -17.3873 42.4697 -31.7913 -0.0000 -0.0000 -0.0000 -38.6944 -13.5394 7.6406 -37.4055 1.5000 0.4274 178.2671 -80.2759 -162.7346 10.9236 -0.8614 -0.5790 -0.0000 -0.0000 -0.0000 32.4854 6.9708 4.0305 39.9083 -20.7289 20.3545 -163.2286 87.5190 -138.4220 -1.5453 8.4142 -0.1106 0.0000 -0.0000 0.0000 8.0967 0.5788 -6.5968 1.3221 2.0318 18.0688 -15.7133 1.8104 1.6796 0.0000 0.0000 0.0000
8.4347 41.4759 21.9087 -0.2438 -65.7221 3.7312 0.0000 -0.0000 0.0000 -10.9972 -3.3630 -8.4123 1.1370 2.6094 21.3660 18.2006 -1.4654 -2.2703 0.0000 0.0000 0.0000 0.0000 -0.0000 0.0000 1.3237 -0.2744 0.0243 -0.5906 -0.3538 1.6693 -0.0000 -0.0000 -0.0000 -16.5422 42.4278 -28.8285 -0.0000 -0.0000 -0.0000 -38.0921 -13.4607 7.4988 -36.8449 0.3206 4.3627 178.6343 -79.4551 -164.0319 8.4107 -1.7535 -0.5007 -0.0000 -0.0000 -0.0000 32.9076 7.0736 4.1146 40.6856 -21.5500 20.5655 -169.7406 85.4889 -143.0567 0.1803 9.1118 0.1013 0.0000 -0.0000 0.0000 10.2467 3.0557 -8.3154 -0.0912 -2.3556 14.9832 -18.3842 3.5647 10.7937 0.0000 0.0000 0.0000
8.5126 41.7447 21.0526 -1.1301 -64.3171 4.9482 0.0000 -0.0000 0.0000 -9.8264 0.1249 -9.3418 0.5609 1.1408 28.8874 17.5955 -1.9368 1.1560 0.0000 0.0000 0.0000 0.0000 -0.0000 0.0000 2.0140 -0.0954 -0.8877 -0.3525 -0.2394 2.3519 -0.0000 -0.0000 -0.0000 -16.9835 41.1042 -28.0039 -0.0000 -0.0000 -0.0000 -37.2222 -13.2370 7.2489 -35.0847 -3.8706 9.3864 177.7055 -79.7830 -159.7279 5.9985 -2.5873 -0.3891 -0.0000 -0.0000 -0.0000 32.4268 7.0719 4.0631 40.5288 -21.9944 20.4472 -174.3571 83.2875 -150.9081 -0.6243 8.4872 -0.0013 0.0000 -0.0000 0.0000 11.7678 3.3221 -9.5146 -0.0176 -3.4708 13.0756 -17.9783 4.2278 15.5275 0.0000 0.0000 0.0000
8.6910 41.4342 20.2225 -1.7501 -62.1183 4.8892 0.0000 -0.0000 0.0000 -8.8203 1.2455 -8.2567 2.2011 2.8665 34.7975 16.4017 -2.1256 3.4388 0.0000 0.0000 0.0000 0.0000 -0.0000 0.0000 2.2403 -0.2356 -0.1614 1.1268 -0.5826 2.6471 -0.0000 -0.0000 -0.0000 -17.8307 39.5371 -28.2693 -0.0000 -0.0000 -0.0000 -35.9415 -12.8496 6.8658 -33.6676 -9.4893 14.2273 176.4180 -80.3422 -154.2466 5.2817 -3.2109 -0.3632 -0.0000 -0.0000 -0.0000 31.7550 7.0208 3.9729 38.7190 -21.5609 20.6495 -176.9231 81.2311 -157.6223 -3.5490 6.8258 -0.3151 0.0000 -0.0000 0.0000 13.3784 -0.5594 -10.6774 1.4431 0.8900 13.7513 -15.4914 3.6869 15.9501 0.0000 0.0000 0.0000
